<?xml version="1.0" encoding="UTF-8"?>
<svg width="25px" height="24px" viewBox="0 0 25 24" version="1.1" xmlns="http://www.w3.org/2000/svg" xmlns:xlink="http://www.w3.org/1999/xlink">
    <!-- Generator: sketchtool 63.1 (101010) - https://sketch.com -->
    <title>58600398-BCB3-491E-85E9-4F48B31DDA97</title>
    <desc>Created with sketchtool.</desc>
    <g id="Doctor-decoding-screen" stroke="none" stroke-width="1" fill="none" fill-rule="evenodd">
        <g id="popup-3" transform="translate(-1042.000000, -336.000000)" fill="#000D37">
            <g id="Elements/Pop-up/Visits" transform="translate(429.000000, 121.000000)">
                <g id="Right-Template" transform="translate(538.000000, 124.000000)">
                    <g id="Content" transform="translate(43.000000, 80.000000)">
                        <g id="Textfeilds/Popup-Search/Filled">
                            <g id="-Icons/24px/X" transform="translate(32.000000, 11.000000)">
                                <g transform="translate(5.013193, 5.000000)">
                                    <path d="M7.36075589,-0.985677751 L7.41044615,-0.986930319 C7.93568384,-1.00017026 8.37220621,-0.585114066 8.38544615,-0.0598763717 C8.38584895,-0.0438968921 8.38584895,-0.0279097986 8.38544615,-0.011930319 L8.03121325,14.0407403 C8.01778943,14.5732729 7.58926296,15.0017994 7.05673032,15.0152232 L7.00704006,15.0164758 C6.48180236,15.0297157 6.04527999,14.6146595 6.03204006,14.0894218 C6.03163725,14.0734423 6.03163725,14.0574553 6.03204006,14.0414758 L6.38627296,-0.0111948188 C6.39969678,-0.543727457 6.82822325,-0.972253927 7.36075589,-0.985677751 Z" id="Rectangle" transform="translate(7.208743, 7.014773) rotate(45.000000) translate(-7.208743, -7.014773) "></path>
                                    <path d="M7.00704006,-0.986930319 L7.05673032,-0.985677751 C7.58926296,-0.972253927 8.01778943,-0.543727457 8.03121325,-0.0111948188 L8.38544615,14.0414758 C8.39868609,14.5667135 7.9836299,15.0032358 7.4583922,15.0164758 C7.44241272,15.0168786 7.42642563,15.0168786 7.41044615,15.0164758 L7.36075589,15.0152232 C6.82822325,15.0017994 6.39969678,14.5732729 6.38627296,14.0407403 L6.03204006,-0.011930319 C6.01880012,-0.537168013 6.43385631,-0.973690382 6.959094,-0.986930319 C6.97507348,-0.987333122 6.99106058,-0.987333122 7.00704006,-0.986930319 Z" id="Rectangle-Copy-2" transform="translate(7.208743, 7.014773) rotate(-45.000000) translate(-7.208743, -7.014773) "></path>
                                </g>
                            </g>
                        </g>
                    </g>
                </g>
            </g>
        </g>
    </g>
</svg>