<svg xmlns="http://www.w3.org/2000/svg" width="75" height="43" viewBox="0 0 75 43">
    <g fill="none" fill-rule="evenodd">
        <path fill="#0071FF" d="M74.208 20.724c0 .31-.097.621-.297.888C68.8 28.4 64.199 33.349 59.845 36.739c-4.08 3.178-7.89 4.939-11.649 5.384-1.9.225-3.825.105-5.72-.358-1.695-.414-3.39-1.095-5.182-2.082-3.247-1.789-6.261-4.274-9.452-6.905C20.514 26.735 12.936 20.486 1.7 22.185c-.808.122-1.561-.434-1.683-1.241-.122-.808.433-1.561 1.24-1.683C13.8 17.365 22.26 24.34 29.724 30.496c6.167 5.085 11.492 9.476 18.125 8.69 3.208-.38 6.538-1.943 10.18-4.78 4.146-3.228 8.568-7.995 13.52-14.573.491-.652 1.418-.783 2.07-.292.387.29.59.734.59 1.183" style="mix-blend-mode:multiply"/>
        <path fill="#28D957" d="M74.208 21.512c0-.463-.217-.92-.624-1.208-4.855-3.44-9.23-5.847-13.374-7.358-3.78-1.377-7.293-1.979-10.74-1.838-2.893.118-5.78.774-8.828 2.006-2.668 1.078-5.21 2.488-7.668 3.852-8.384 4.652-16.303 9.046-30.945 3.172-.757-.304-1.618.064-1.922.822-.304.758.064 1.619.822 1.923 3.796 1.523 7.299 2.447 10.707 2.824 3.059.339 5.957.226 8.862-.346 5.333-1.05 9.694-3.47 13.911-5.81 9.93-5.51 18.507-10.268 37.466 3.166.666.472 1.589.315 2.06-.352.185-.259.273-.558.273-.853"/>
        <path fill="#0071FF" d="M74.208 21.51c0-.31-.097-.622-.297-.889C68.8 13.832 64.199 8.884 59.846 5.494 55.766 2.317 51.956.556 48.196.11c-1.9-.225-3.825-.105-5.72.358-1.695.414-3.39 1.095-5.182 2.082-3.247 1.79-6.261 4.274-9.452 6.905C20.514 15.498 12.937 21.747 1.7 20.05c-.807-.122-1.561.433-1.683 1.24-.122.808.434 1.562 1.241 1.684C13.8 24.868 22.26 17.892 29.724 11.737c6.166-5.085 11.491-9.476 18.125-8.69 3.207.38 6.537 1.944 10.18 4.78 4.145 3.228 8.567 7.995 13.52 14.573.49.652 1.417.783 2.07.292.386-.29.59-.734.59-1.183" style="mix-blend-mode:multiply"/>
        <path fill="#0071FF" d="M74.208 21.51c0-.339-.116-.679-.352-.957-.529-.622-1.462-.698-2.084-.169-7.072 6.013-13.13 8.413-19.066 7.552-5.27-.765-9.79-3.978-14.575-7.38-4.862-3.456-9.89-7.03-15.917-7.974-3.301-.518-6.567-.21-9.983.94-3.749 1.262-7.57 3.5-11.684 6.841-.634.515-.73 1.446-.216 2.08.515.634 1.446.73 2.08.215 7.074-5.746 13.402-8.086 19.346-7.155 5.339.837 9.867 4.056 14.66 7.464 4.861 3.455 9.888 7.028 15.865 7.895 3.272.475 6.506.111 9.884-1.111 3.696-1.338 7.465-3.665 11.521-7.114.344-.292.521-.708.521-1.127" style="mix-blend-mode:multiply"/>
    </g>
</svg>
