<svg xmlns="http://www.w3.org/2000/svg" xmlns:xlink="http://www.w3.org/1999/xlink" width="47" height="47" viewBox="0 0 47 47">
    <defs>
        <radialGradient id="prefix__a" cx="41.116%" cy="112.273%" r="447.368%" fx="41.116%" fy="112.273%" gradientTransform="matrix(.4121 -.01933 .00797 .99981 .233 .008)">
            <stop offset="0%" stop-color="#00E2D8"/>
            <stop offset="100%" stop-color="#A8FFC6"/>
        </radialGradient>
        <radialGradient id="prefix__b" cx="41.116%" cy="112.273%" r="502.628%" fx="41.116%" fy="112.273%" gradientTransform="scale(.36685 1) rotate(-.986 .766 -40.114)">
            <stop offset="0%" stop-color="#00E2D8"/>
            <stop offset="100%" stop-color="#A8FFC6"/>
        </radialGradient>
        <radialGradient id="prefix__d" cx="95.262%" cy="124.405%" r="270.167%" fx="95.262%" fy="124.405%" gradientTransform="scale(.57308 1) rotate(-71.136 1.307 .748)">
            <stop offset="0%" stop-color="#79FFC0"/>
            <stop offset="100%" stop-color="#2EE8FC"/>
        </radialGradient>
        <radialGradient id="prefix__f" cx="95.262%" cy="124.405%" r="265.671%" fx="95.262%" fy="124.405%" gradientTransform="scale(.6928 1) rotate(-74.217 1.164 .965)">
            <stop offset="0%" stop-color="#79FFC0"/>
            <stop offset="100%" stop-color="#2EE8FC"/>
        </radialGradient>
        <radialGradient id="prefix__i" cx="95.262%" cy="124.405%" r="274.181%" fx="95.262%" fy="124.405%" gradientTransform="scale(.50528 1) rotate(-68.817 1.419 .563)">
            <stop offset="0%" stop-color="#79FFC0"/>
            <stop offset="100%" stop-color="#2EE8FC"/>
        </radialGradient>
        <path id="prefix__e" d="M17.945.051C13.73.051 9.78 1.18 6.378 3.147c-.117.068-.226.144-.341.213l.013-.004S-4.523 9.964 2.746 13.929c4.626 2.642 10.573 1.321 15.2 0 8.59-1.984 23.275-5.517 22.54 14.424.381-1.666.587-3.394.587-5.172C41.073 10.405 30.72.05 17.945.05z"/>
        <path id="prefix__h" d="M2.735 34.094c.297 5.653 11.577 12.634 20.393 12.215 8.065-.383 11.443-3.698 12.798-6.805 2.279-5.229.948-8.38.33-9.26-.685-.97-1.78-1.369-3.148-1.369-5.482-.001-15.394 6.39-21.214 8.182-4.289 1.32-8.782-.598-9.159-2.963z"/>
        <linearGradient id="prefix__c" x1="0%" x2="100%" y1="50%" y2="50%">
            <stop offset="0%" stop-color="#4FACFD"/>
            <stop offset="100%" stop-color="#00F2FD"/>
        </linearGradient>
    </defs>
    <g fill="none" fill-rule="evenodd">
        <path fill="url(#prefix__a)" d="M2.735 34.095s.193-2.212 3.113-.951c2.92 1.263 6.908 3.756 13.529.701 6.62-3.054.512 7.04.512 7.04l-11.2-1.98-5.622-3.396-.332-1.414z"/>
        <g>
            <path fill="url(#prefix__b)" d="M.288 8.55C-.3 7.445-.026 5.22 2.06 3.83c3.363-2.243 9.402 2.327 17.83.161 8.427-2.167.58 4.56.58 4.56L5.896 11.914S1.058 9.992.288 8.55" transform="translate(0 16.25)"/>
            <path fill="url(#prefix__c)" d="M0 7.438c0 .975.245 2.448.66 3.305 3.446 7.12 9.631 4.466 17.181 1.321 7.93-3.303 15.2-5.288 19.163-2.644 3.52 2.347 4.626 7.93 1 15.722 3.626-3.167 5.204-8.427 5.47-9.73C45.093 7.455 41.853.002 32.323 0c-.817 0-1.678.055-2.587.168C19.163 1.491 4.585 16.536 0 7.438z" transform="translate(0 16.25)"/>
            <path fill="url(#prefix__d)" d="M0 7.438c0 .975.245 2.448.66 3.305 3.446 7.12 9.631 4.466 17.181 1.321 7.93-3.303 15.2-5.288 19.163-2.644 3.52 2.347 4.626 7.93 1 15.722 3.626-3.167 5.204-8.427 5.47-9.73C45.093 7.455 41.853.002 32.323 0c-.817 0-1.678.055-2.587.168C19.163 1.491 4.585 16.536 0 7.438z" transform="translate(0 16.25)"/>
        </g>
        <g transform="translate(5.183)">
            <mask id="prefix__g" fill="#fff">
                <use xlink:href="#prefix__e"/>
            </mask>
            <path fill="url(#prefix__f)" d="M17.945.051C13.73.051 9.78 1.18 6.378 3.147c-.117.068-.226.144-.341.213l.013-.004S.71 6.602.249 9.923C0 11.718 1.432 13.243 3.194 12.66c1.762-.583 2.146-2.161 4.22-3.977 1.508-1.32 2.918-2.53 7.691-3.618 4.401-1.004 6.625.143 6.704 1.345.064.975-.32 2.273-3.2 2.199-2.086-.054-6.03 1.356-4.135 4.474.708 1.162 2.593 1.097 3.471.846 1.617-.374 3.45-.802 5.356-1.118 8.217-1.364 17.781-.645 17.185 15.542.381-1.666.587-3.394.587-5.172C41.073 10.405 30.72.05 17.945.05z" mask="url(#prefix__g)"/>
        </g>
        <path fill="url(#prefix__i)" d="M2.735 34.094c.297 5.653 11.577 12.634 20.393 12.215 8.065-.383 11.46-4.551 12.815-7.658 1.109-2.544 2.078-6.75-.927-8.702s-6.633-.336-7.54 0c-5.116 1.9-11.254 5.776-15.582 7.108-4.289 1.32-8.782-.598-9.159-2.963z"/>
    </g>
</svg>
